<svg width="932" height="583" viewBox="0 0 932 583" fill="none" xmlns="http://www.w3.org/2000/svg">
<rect width="932" height="583" fill="#FAFAFA"/>
<path fill-rule="evenodd" clip-rule="evenodd" d="M455.235 70.5483C521.104 64.5732 590.095 38.0085 651 54.1087C711.883 70.2031 724.381 118.8 761.874 151.608C795.065 180.652 841.072 204.506 860.734 237.634C880.568 271.052 877.799 307.049 875.145 342.461C872.389 379.243 875.473 418.242 844.804 450.204C814.119 482.184 754.919 499.32 704.326 520.485C654.315 541.407 606.656 565.697 547.415 574.617C487.493 583.64 425.321 576.727 364.089 571.717C299.794 566.457 230.016 566.703 177.088 544.32C124.109 521.915 99.1755 483.205 71.7795 448.1C45.7613 414.761 16.7721 380.111 20.2917 343.402C23.7267 307.574 74.4941 280.141 91.1887 245.662C108.519 209.87 83.7053 166.641 120.465 136.513C156.822 106.715 225.625 98.9364 284.319 87.3711C339.75 76.4488 397.518 75.7839 455.235 70.5483Z" fill="#BC92B7" fill-opacity="0.5"/>
<path fill-rule="evenodd" clip-rule="evenodd" d="M10.2007 132.142C5.28503 129.705 -1.26815 132.532 1.46554 138.975C4.3938 145.876 15.2204 145.961 21.3348 145.824C20.7228 145.792 18.7521 139.464 18.0775 138.508C16.0878 135.688 13.2228 133.643 10.2007 132.142ZM66.8387 255.859C68.0789 256.919 66.9396 255.958 66.8387 255.859V255.859ZM5.4653 163.353C2.58865 165.552 2.45144 169.434 4.80129 172.062C7.59942 175.191 12.7087 175.077 16.5226 174.772C18.2479 174.634 27.4598 173.896 25.2762 172.389C25.4442 172.452 25.795 172.606 26.1704 172.815C26.3724 173.554 26.5845 174.289 26.8056 175.021C26.7514 175.053 26.7053 175.087 26.6473 175.119C26.7101 175.091 26.7541 175.061 26.8093 175.033C29.0246 182.353 32.1779 189.322 36.3068 195.842C34.762 195.233 33.162 194.773 31.5391 194.568C26.7333 193.96 16.6235 197.695 21.9992 204.093C27.1536 210.227 35.1782 203.646 41.028 202.739C46.7022 210.658 52.9582 218.247 59.5145 225.583C59.1128 225.709 58.7602 225.971 58.5581 226.379C55.9279 225.045 53.1872 223.136 50.7529 222.619C47.2403 221.874 40.0376 221.423 37.3827 224.567C34.1174 228.433 37.6176 231.573 41.4755 232.315C47.0694 233.39 54.3922 230.657 59.7748 228.81C60.3905 228.919 61.0627 228.739 61.4642 228.247C61.5832 228.208 61.7021 228.169 61.8178 228.132C68.4572 235.432 75.3506 242.491 82.202 249.395C82.1291 249.391 82.0562 249.387 81.9801 249.383C80.1929 248.211 78.2759 247.249 76.1979 246.745C71.3911 245.574 65.7354 245.568 61.8346 249.046C57.9489 252.509 56.5725 258.566 60.5923 262.455C68.6386 270.239 80.4938 252.49 84.5525 251.749C91.5151 258.692 98.8773 265.179 106.355 271.534C105.506 271.276 104.635 271.086 103.735 271C96.4021 270.298 79.1906 279.288 88.1897 288.133C96.0319 295.84 105.109 281.005 111.428 275.817C118.475 281.741 125.56 287.624 132.446 293.737C128.69 292.74 125.061 292.593 121.035 293.809C116.869 295.07 110.146 298.216 112.78 303.84C115.459 309.56 123.531 306.957 127.735 305.141C130.029 304.151 134.626 300.808 138.663 299.4C149.651 309.774 159.169 321.2 166.375 334.661C170.873 343.065 174.287 352.044 176.69 361.273C178.223 367.163 181.245 377.056 180.64 384.723C183.524 369.377 178.31 350.946 172.693 337.229C167.529 324.616 159.8 313.543 150.747 303.576C153.019 296.743 172.14 286.888 160.709 280.54C154.639 277.184 148.422 282.753 147.095 288.652C146.183 292.705 147.572 297.798 149.046 301.733C146.198 298.694 143.237 295.754 140.187 292.911C135.971 288.982 131.654 285.166 127.295 281.399C134.477 274.652 141.274 255.364 131.645 252.21C117.425 247.565 124.272 273.874 125.264 278.806C125.546 278.822 125.765 278.737 125.927 278.555C125.847 279.006 125.754 279.489 125.641 279.976C117.3 272.803 108.835 265.772 100.648 258.428C101.386 257.883 102.558 255.8 103.48 254.691C105.56 252.192 107.549 249.581 109.004 246.657C111.301 242.037 113.516 234.666 107.427 231.949C100.805 228.988 97.6576 237.323 97.6114 242.296C97.58 245.735 98.5166 249.002 99.0045 252.373C99.157 253.424 98.5697 258.163 100.002 256.125C99.9344 256.876 99.9247 257.421 99.9582 257.807C98.4885 256.482 97.0301 255.142 95.581 253.793C95.6481 253.623 95.6978 253.437 95.7091 253.222C95.7868 251.739 94.295 251.168 93.2489 251.602C91.3367 249.785 89.4432 247.945 87.5835 246.069C83.6419 242.093 79.6432 238.004 75.6721 233.828C76.5336 233.087 76.191 232.062 76.9967 231.277C77.8012 230.493 79.3856 230.059 80.3315 229.331C82.7107 227.498 84.6836 224.828 86.1104 222.2C88.4661 217.858 91.5104 208.75 84.6288 206.681C77.5356 204.544 73.9352 213.312 73.4792 218.794C73.3904 219.856 74.1855 229.424 74.7943 232.899C67.4463 225.137 60.2193 217.085 53.6717 208.892C55.657 208.874 61.2854 204.806 62.4233 203.696C65.1996 200.989 69.613 195.008 64.7456 191.842C60.4178 189.035 55.0832 193.101 53.2325 197.053C52.9283 197.704 51.8556 203.761 51.772 206.479C49.062 203.004 46.4769 199.51 44.0718 196.004C42.4678 193.673 40.969 191.28 39.5666 188.837C39.9042 188.646 40.2218 188.312 40.5218 187.897C47.7398 186.672 56.9425 175.41 48.4641 171.491C44.4275 169.628 40.0498 173.474 38.0724 176.623C37.6672 177.267 37.0111 180.506 36.4771 183.061C32.4425 174.967 29.3594 166.397 27.0129 157.611C27.6412 157.455 28.1733 156.975 28.2435 156.149C31.7479 154.151 34.5153 152.488 36.9616 148.646C38.4814 146.26 41.2184 140.808 36.7528 139.483C30.9415 137.76 27.291 146.636 26.8156 151.008C26.7602 151.516 26.7623 152.992 26.7814 154.344C26.5797 154.317 26.3757 154.32 26.1757 154.355C24.841 148.915 23.7756 143.404 22.9283 137.885C26.1002 136.864 26.6487 120.206 24.5368 117.834C19.8162 112.523 16.4859 120.195 16.7379 124.249C17.0356 129.03 19.2021 133.38 21.7818 137.239C22.0586 137.648 21.9796 137.628 22.0513 137.059C22.091 137.34 22.1852 137.548 22.3248 137.698C22.1917 140.215 21.9322 142.792 22.0568 145.019C22.414 151.396 23.1569 157.811 24.2355 164.106C24.4979 165.637 24.7984 167.156 25.1352 168.661C22.5858 166.489 19.1484 164.559 17.8034 163.956C14.3125 162.391 8.93266 160.702 5.4653 163.353ZM181.05 384.745C180.888 386.968 180.486 389.005 179.737 390.684C180.299 388.772 180.73 386.785 181.05 384.745Z" fill="#E1D0BC"/>
<g opacity="0.7">
<path opacity="0.7" fill-rule="evenodd" clip-rule="evenodd" d="M105.822 282.77C119.474 282.062 136.359 290.031 137.815 304.871C138.873 315.653 138.546 326.405 140.183 337.172C141.492 345.776 144.261 354.036 148.038 361.874C151.67 369.411 159.203 375.827 161.162 383.879C162.411 389.01 161.712 396.227 159.99 401.245C157.896 407.347 159.009 406.865 163.182 411.985C171.359 422.018 178.723 432.307 183.93 444.29C191.43 461.55 196.348 481.725 193.564 500.618C193.21 503.017 192.79 511.627 189.486 512.229C185.796 512.902 187.522 507.978 187.719 506.387C188.974 496.238 190.089 487.367 188.575 477.059C182.732 437.288 154.201 411.085 135.623 377.331C134.602 375.59 132.446 371.445 130.947 368.711C128.58 364.393 126.201 356.179 122.997 352.977C116.963 346.947 122.511 359.071 123.686 361.385C125.173 364.313 126.808 367.425 128.332 369.99C135.302 381.882 143.082 394.862 150.28 407.121C119.147 414.214 97.2208 376.785 88.866 352.178C81.9824 331.905 73.7463 284.505 105.822 282.77Z" fill="#E8BF93"/>
<path opacity="0.7" fill-rule="evenodd" clip-rule="evenodd" d="M243.723 170.191C220.299 194.569 208.982 228.383 200.022 260.172C190.014 295.676 183.403 331.728 183.149 368.642C182.983 392.895 182.323 417.299 183.739 441.523C184.241 450.126 185.099 458.745 186.462 467.255C186.575 467.955 189.626 486.958 192.545 482.53C194.205 480.012 189.417 462.817 189.056 459.953C187.021 443.822 186.548 427.573 186.647 411.326C186.81 384.575 186.021 357.962 188.733 331.31C189.137 327.33 189.457 323.151 190.402 319.258C191.406 315.119 190.127 316.926 193.396 315.287C196.573 313.694 200.498 313.922 203.794 311.924C216.866 303.997 223.553 283.635 228.758 270.275C234.711 254.998 238.329 238.706 241.219 222.628C243.341 210.816 244.858 199.075 245.716 187.11C245.987 183.339 246.003 179.396 246.744 175.688C246.944 174.688 247.945 172.919 247.909 172.033C247.832 170.158 246.701 169.056 246.608 167.481C245.627 168.363 244.665 169.267 243.723 170.191Z" fill="#E1AF7C"/>
<path opacity="0.7" fill-rule="evenodd" clip-rule="evenodd" d="M116 495C116 535.317 148.683 568 189 568C229.317 568 262 535.317 262 495" fill="#E1AF7C"/>
<path opacity="0.7" fill-rule="evenodd" clip-rule="evenodd" d="M194.857 495.232H191C191.268 490.393 191.621 485.562 192.43 480.776C195.525 462.473 205.2 435.591 226.42 432.62C227.203 432.51 230.083 432.491 233.571 432.696C235.224 431.772 237.076 431.213 239.028 431.085C257.095 429.753 277.271 444.329 285.986 459.497C293.012 471.726 291.828 487.785 287.489 500.778C284.583 509.476 278.241 521.878 267.665 521.999C254.433 522.15 253.795 505.796 253.539 496.236C253.199 483.525 251.593 472.453 241.577 463.789C239.243 461.771 236.692 459.995 234.334 458.005C230.642 454.89 226.562 451.7 226.086 446.546C225.43 439.436 229.443 438.156 235.571 439.477C236.616 439.702 247.139 444.424 245.581 440.692C245.105 439.552 243.368 438.648 241.175 437.971C235.501 437.354 228.734 436.638 226.787 437.066C205.792 441.672 197.617 470.755 195.446 489.233C195.212 491.227 195.023 493.228 194.857 495.232V495.232Z" fill="#E8BF93"/>
</g>
<path opacity="0.2" fill-rule="evenodd" clip-rule="evenodd" d="M863.216 12.041C866.727 10.2999 871.408 12.3192 869.456 16.922C867.364 21.8508 859.631 21.9117 855.263 21.814C855.7 21.7911 857.108 17.2713 857.59 16.5883C859.011 14.5735 861.057 13.1133 863.216 12.041ZM822.787 101.848C821.547 102.909 822.686 101.948 822.787 101.848V101.848ZM867.297 34.925C869.397 36.514 869.495 39.3214 867.779 41.2225C865.734 43.4858 862.004 43.4053 859.219 43.1863C857.96 43.0871 851.234 42.5571 852.829 41.4663C852.706 41.5122 852.45 41.6237 852.176 41.7751C852.028 42.309 851.873 42.8409 851.711 43.3705C851.751 43.3934 851.785 43.418 851.827 43.4407C851.781 43.4209 851.749 43.3994 851.709 43.3793C850.088 48.6725 847.784 53.713 844.766 58.429C845.895 57.9886 847.063 57.655 848.248 57.5062C851.757 57.0649 859.137 59.7617 855.21 64.3905C851.444 68.828 845.588 64.0723 841.317 63.4182C837.171 69.1467 832.6 74.6368 827.811 79.9436C828.104 80.0345 828.361 80.2239 828.509 80.5189C830.429 79.5531 832.431 78.1717 834.209 77.7971C836.774 77.2573 842.033 76.9282 843.97 79.2007C846.353 81.995 843.796 84.267 840.979 84.8046C836.894 85.5842 831.549 83.6106 827.619 82.2773C827.17 82.3562 826.679 82.2263 826.386 81.8703C826.299 81.8422 826.212 81.8145 826.128 81.7876C821.277 87.0686 816.242 92.1754 811.237 97.1704C811.29 97.1676 811.343 97.1644 811.399 97.1614C812.704 96.3132 814.104 95.617 815.621 95.252C819.132 94.403 823.261 94.3968 826.108 96.9103C828.944 99.4131 829.946 103.792 827.01 106.606C821.132 112.237 812.483 99.4079 809.52 98.8736C804.433 103.896 799.056 108.59 793.593 113.188C794.213 113.001 794.849 112.863 795.507 112.801C800.861 112.291 813.424 118.785 806.85 125.184C801.122 130.76 794.5 120.036 789.888 116.287C784.74 120.573 779.565 124.83 774.535 129.252C777.278 128.53 779.928 128.422 782.867 129.3C785.908 130.211 790.815 132.483 788.89 136.551C786.933 140.688 781.04 138.809 777.97 137.497C776.296 136.782 772.941 134.366 769.994 133.35C761.967 140.855 755.013 149.121 749.747 158.857C746.46 164.936 743.964 171.43 742.206 178.104C741.084 182.364 738.874 189.518 739.313 195.062C737.213 183.966 741.027 170.637 745.133 160.717C748.908 151.594 754.556 143.584 761.169 136.374C759.513 131.434 745.555 124.315 753.904 119.72C758.337 117.291 762.875 121.316 763.841 125.581C764.505 128.511 763.49 132.195 762.412 135.04C764.493 132.842 766.655 130.715 768.884 128.658C771.963 125.815 775.117 123.055 778.3 120.329C773.059 115.453 768.104 101.509 775.136 99.224C785.519 95.86 780.511 114.887 779.785 118.453C779.579 118.465 779.419 118.404 779.301 118.272C779.359 118.598 779.427 118.947 779.509 119.299C785.602 114.11 791.785 109.022 797.765 103.709C797.227 103.315 796.371 101.809 795.699 101.008C794.181 99.2013 792.729 97.3142 791.669 95.2004C789.993 91.8602 788.378 86.5317 792.825 84.5642C797.662 82.4206 799.956 88.447 799.988 92.0427C800.01 94.5295 799.325 96.8923 798.967 99.33C798.856 100.09 799.283 103.517 798.238 102.043C798.287 102.587 798.294 102.98 798.269 103.259C799.343 102.301 800.408 101.332 801.467 100.356C801.418 100.232 801.381 100.098 801.373 99.9424C801.317 98.8705 802.406 98.457 803.17 98.7706C804.567 97.4559 805.95 96.1247 807.309 94.7671C810.188 91.8908 813.109 88.9324 816.01 85.9111C815.381 85.3762 815.632 84.635 815.044 84.0671C814.457 83.5005 813.3 83.1875 812.61 82.6613C810.873 81.3369 809.434 79.4069 808.393 77.5073C806.675 74.3686 804.455 67.7836 809.481 66.2846C814.66 64.7372 817.286 71.0758 817.617 75.0394C817.681 75.8072 817.097 82.7266 816.652 85.2393C822.019 79.6243 827.299 73.7988 832.083 67.8722C830.633 67.8597 826.525 64.9206 825.695 64.1185C823.669 62.162 820.449 57.8383 824.004 55.5476C827.165 53.5158 831.058 56.4543 832.408 59.3114C832.63 59.7818 833.411 64.1612 833.471 66.1263C835.451 63.6131 837.339 61.0852 839.097 58.5491C840.269 56.8631 841.364 55.1325 842.389 53.3652C842.142 53.227 841.911 52.9858 841.692 52.6859C836.422 51.8028 829.707 43.6626 835.899 40.8261C838.847 39.4773 842.042 42.2568 843.484 44.5329C843.78 44.9986 844.258 47.3403 844.647 49.1874C847.596 43.3329 849.85 37.1353 851.566 30.7812C851.108 30.6686 850.719 30.3217 850.668 29.7247C848.11 28.2814 846.091 27.0795 844.306 24.3024C843.197 22.5775 841.201 18.6363 844.462 17.6769C848.705 16.4286 851.367 22.8456 851.713 26.0068C851.753 26.3738 851.751 27.441 851.737 28.4191C851.884 28.3991 852.033 28.4013 852.179 28.4268C853.155 24.4923 853.935 20.5072 854.556 16.5155C852.24 15.7785 851.846 3.73335 853.389 2.01745C856.838 -1.82467 859.266 3.72168 859.081 6.65378C858.862 10.111 857.278 13.2567 855.393 16.0486C855.191 16.3443 855.249 16.3299 855.197 15.9182C855.168 16.1217 855.099 16.2719 854.997 16.3808C855.093 18.2005 855.282 20.0635 855.19 21.6739C854.927 26.2855 854.382 30.9242 853.592 35.4767C853.4 36.5839 853.18 37.6821 852.933 38.7708C854.796 37.1993 857.306 35.8027 858.288 35.3658C860.838 34.2331 864.766 33.0095 867.297 34.925ZM738.896 194.624C739.019 196.106 739.385 197.458 740.104 198.566C739.576 197.3 739.18 195.981 738.896 194.624Z" fill="#E8BF93"/>
<g opacity="0.5">
<path opacity="0.5" fill-rule="evenodd" clip-rule="evenodd" d="M831.223 163.04C835.425 157.048 843.224 141.83 849.138 139.689C852.948 138.31 851.837 152.575 851.884 155.296C852.067 165.819 851.043 176.276 849.778 186.712C847.498 205.532 840.045 222.293 829.822 238.311C824.562 246.553 818.391 254.895 809.845 260.038C805.912 262.406 801.179 262.802 797.294 264.843C792.769 267.218 795.233 265.298 793.194 270.013C790.363 276.558 789.457 285.003 788.147 291.987C782.132 324.05 767.568 493.54 770.093 526.153C770.317 529.044 766.287 529.735 766.085 526.206C765.016 507.495 774.27 377.917 778.94 335.542C783.609 293.166 788.334 255.73 793.071 241.069C798.819 223.283 809.199 201.893 817.84 185.307C821.854 177.601 826.229 170.161 831.223 163.04Z" fill="#F0C9A2"/>
<path opacity="0.5" fill-rule="evenodd" clip-rule="evenodd" d="M862.414 370.873C873.349 362.845 885.186 377.996 875.29 386.026C869.82 390.464 864.101 388.885 860.882 385.186C858.792 387.734 856.836 390.398 854.956 392.648C849.229 399.504 843.817 406.523 838.644 413.707C827.898 428.63 818.689 444.396 809.06 459.874C799.558 475.149 790.132 490.503 781.519 506.166C774.223 519.436 764.498 535.047 762 549.595C765.79 518.742 780.172 489.086 797.298 461.886C814.285 434.909 833.779 405.448 860.081 384.159C857.404 380.222 857.33 374.603 862.414 370.873Z" fill="#E8BF93"/>
<path opacity="0.5" fill-rule="evenodd" clip-rule="evenodd" d="M654.913 295.626C661.032 296.823 671.031 310.665 676.075 315.94C682.07 322.207 687.508 328.888 692.635 335.887C703.671 350.953 713.541 366.971 721.934 383.675C735.616 410.906 746.578 438.86 754.533 468.513C759.403 486.665 762.556 505.478 764.424 524.16C764.777 527.684 768.471 554.848 763.148 555.58C758.361 556.24 759.84 534.954 759.609 532.058C756.998 499.393 749.177 467.61 738.299 436.821C735.929 430.114 733.728 421.899 729.938 415.864C727.209 411.516 729.919 413.032 725.123 411.387C721.005 409.974 716.313 410.319 712.096 408.589C702.936 404.832 695.601 397.539 689.171 390.203C676.676 375.947 666.774 360.523 661.613 342.256C658.749 332.127 656.118 321.939 654.658 311.497C654.281 308.798 650.972 294.855 654.913 295.626Z" fill="#F0C9A2"/>
<path opacity="0.5" fill-rule="evenodd" clip-rule="evenodd" d="M679.061 65.3113C702.111 105.286 721.053 149.197 733.283 193.672C740.694 220.618 745.876 248.27 751.025 275.722C758.997 318.227 766.538 360.73 768.683 403.99C770.841 447.502 775.108 497.687 760.861 539.595C767.978 497.047 761.202 451.758 760.002 408.945C759.429 388.507 757.768 368.269 755.588 347.95C753.473 328.24 750.018 308.624 746.801 289.069C745.234 279.545 743.588 270.036 741.912 260.532C741.411 257.696 741.2 249.282 739.401 247.345C737.591 245.395 728.354 244.6 725.454 243.17C719.615 240.288 714.122 236.195 709.261 231.87C699.942 223.579 691.835 212.746 685.436 202.068C670.631 177.359 664.712 147.205 665.011 118.589C665.068 113.034 674.003 53.2052 670.415 52.3813C670.631 52.1283 670.835 51.867 671.028 51.5953C673.745 56.1441 676.411 60.7237 679.061 65.3113Z" fill="#E1AF7C"/>
<path opacity="0.5" fill-rule="evenodd" clip-rule="evenodd" d="M927.846 209.483C928.202 208.97 930.517 205.402 929.351 205.63C931.724 205.166 926.087 209.565 932 206.865C929.192 209.517 930.813 212.962 930.85 216.531C930.911 222.325 929.942 228.072 928.851 233.742C927.126 242.704 924.557 251.418 920.828 259.754C912.701 277.921 898.901 295.409 882.518 306.767C874.43 312.375 866.504 314.284 857.28 316.865C851.453 318.496 850.991 321.51 847.898 327.164C841.46 338.94 835.136 350.674 829.457 362.847C822.677 377.383 816.095 391.935 809.886 406.727C788.969 456.553 771.945 508.173 763.005 561.595C762.786 530.114 770.069 497.691 779.255 467.683C785.947 445.821 794.658 424.746 803.95 403.885C806.201 398.831 809.613 392.33 810.57 386.75C811.239 382.841 809.192 379.081 808.255 374.963C804.601 358.925 804.863 340.958 808.071 324.835C811.609 307.056 821.839 298.804 839.145 296.286C845.474 295.365 853.519 295.702 859.322 293.004C865.645 290.065 868.253 280.406 871.849 274.205C881.506 257.549 892.98 241.574 906.155 227.54C909.803 223.654 913.726 220.069 917.888 216.745C920.513 214.649 926.058 212.065 927.846 209.483Z" fill="#E1AF7C"/>
<path opacity="0.5" fill-rule="evenodd" clip-rule="evenodd" d="M733.791 527.595H795.209C797.97 527.595 800.209 529.834 800.209 532.595C800.209 532.839 800.191 533.083 800.155 533.325L795.408 565.513C793.961 575.326 785.541 582.595 775.622 582.595H753.378C743.459 582.595 735.039 575.326 733.592 565.513L728.845 533.325C728.442 530.593 730.33 528.052 733.062 527.649C733.303 527.613 733.547 527.595 733.791 527.595Z" fill="#E8BF93"/>
</g>
</svg>
